Coordinates
version=1
nRows=19
nColumns=34
inDegrees=yes

Units are S.I. units (second, meters, Newtons, ...)
If the header above contains a line with 'inDegrees', this indicates whether rotational values are in degrees (yes) or radians (no).

endheader
time	pelvis_tilt	pelvis_list	pelvis_rotation	pelvis_tx	pelvis_ty	pelvis_tz	hip_flexion_r	hip_adduction_r	hip_rotation_r	knee_angle_r	ankle_angle_r	subtalar_angle_r	mtp_angle_r	hip_flexion_l	hip_adduction_l	hip_rotation_l	knee_angle_l	ankle_angle_l	subtalar_angle_l	mtp_angle_l	lumbar_extension	lumbar_bending	lumbar_rotation	arm_flex_r	arm_add_r	arm_rot_r	elbow_flex_r	pro_sup_r	arm_flex_l	arm_add_l	arm_rot_l	elbow_flex_l	pro_sup_l
      5.85000000	      1.83286798	     -1.37277871	      3.51480804	      2.20839858	      1.15612140	     -0.10639698	     -6.12906150	      1.60538524	      2.54720960	      0.94684159	      5.57431834	    -20.60040954	      0.00000000	     -4.06615919	     -3.71802394	      4.10121814	      3.04625740	      5.91285854	    -15.12176118	      0.00000000	     -7.43485288	      2.70223055	     -0.28856137	     -3.36916867	     -6.34217049	    -10.96284118	     28.96790151	     90.61347154	   -179.06407656	   -172.81918606	   -179.30670317	     27.10434433	     92.37605988
      5.86666670	      1.91268314	     -1.46877072	      3.42679861	      2.21270782	      1.15690005	     -0.11028283	     -6.44225278	      1.63402155	      2.36815082	      0.89741670	      5.69215342	    -20.23954853	      0.00000000	     -4.33742423	     -3.76340925	      4.15108340	      3.01995476	      5.91080687	    -15.18278757	      0.00000000	     -7.38808346	      2.80390685	     -0.35311811	     -3.08120122	     -6.18943841	    -10.64656864	     27.13973320	     90.84382986	   -179.02681607	   -172.56275674	   -179.87001161	     27.96369008	     92.16375391
      5.88333330	      1.92316561	     -1.53085766	      3.43493476	      2.21627184	      1.15791209	     -0.11347000	     -6.75068399	      1.59443324	      2.34441549	      0.77271024	      5.76627934	    -20.23408104	      0.00000000	     -4.56906149	     -3.74461317	      4.30217279	      2.94695072	      5.95483144	    -15.13495579	      0.00000000	     -7.07856127	      3.04193115	     -0.45409738	     -3.50652160	     -6.13903273	    -10.57537770	     26.72317350	     90.88651623	   -178.94902398	   -172.41690037	   -180.03497157	     28.16896979	     92.11926989
      5.90000000	      1.97860607	     -1.51642052	      3.36918646	      2.21835234	      1.15931597	     -0.11482331	     -7.09115448	      1.43551802	      2.32723512	      0.62636853	      5.71869328	    -19.94890424	      0.00000000	     -4.88923418	     -3.62923348	      4.37914026	      2.78449980	      5.91852620	    -15.12649931	      0.00000000	     -6.88037279	      3.10432189	     -0.36712633	     -3.75966422	     -6.06037425	    -10.45510054	     25.58504961	     90.98004663	   -178.87738799	   -172.38714838	   -180.42846644	     28.72920710	     92.01277623
      5.91666670	      2.18645421	     -1.51104816	      3.20413541	      2.22036030	      1.16097008	     -0.11477984	     -7.48101581	      1.30218178	      2.30823745	      0.62247246	      5.96827114	    -19.59959018	      0.00000000	     -5.37358190	     -3.54111468	      4.23924847	      2.62248621	      5.79550239	    -15.21330287	      0.00000000	     -6.89230453	      3.15767815	     -0.53318368	     -3.55853127	     -5.86811442	    -10.20832882	     23.96196545	     91.15625389	   -179.19523761	   -172.20344489	   -181.30087397	     29.56894437	     91.81767081
      5.93333330	      2.23217061	     -1.52247313	      3.09572546	      2.22317042	      1.16209022	     -0.11463299	     -7.71467550	      1.20291551	      2.46504093	      0.57866620	      6.06411646	    -19.53726014	      0.00000000	     -5.69466536	     -3.48074214	      4.35234205	      2.44565671	      5.80966870	    -15.18152560	      0.00000000	     -6.63499156	      3.26020672	     -0.61059783	     -3.99082867	     -5.72399042	    -10.14639033	     23.67078993	     91.18429245	   -179.31709733	   -171.97884946	   -181.48777875	     29.71934628	     91.78743408
      5.95000000	      2.26612130	     -1.57700930	      2.93086852	      2.22531064	      1.16194094	     -0.11458887	     -7.86448092	      1.17820529	      2.66678254	      0.61651118	      6.14384505	    -19.43806793	      0.00000000	     -6.00033873	     -3.48395478	      4.37901524	      2.26502646	      5.81454945	    -15.18108392	      0.00000000	     -6.51065024	      3.29365056	     -0.64064863	     -4.35862628	     -5.59794599	    -10.11635207	     23.35654107	     91.19933891	   -179.36216732	   -171.71726003	   -181.65564329	     29.92264510	     91.76221225
      5.96666670	      2.63024726	     -1.55568998	      2.66409813	      2.22676879	      1.16089912	     -0.11515675	     -8.45182375	      1.06408111	      2.83939194	      0.48215782	      6.52724052	    -18.90625934	      0.00000000	     -6.77663330	     -3.41341932	      4.23227493	      1.88476160	      5.83144841	    -14.98350000	      0.00000000	     -6.93655944	      3.27027371	     -1.22389414	     -3.64169008	     -5.39428858	     -9.73289277	     21.82310430	     91.37897394	   -180.35667603	   -171.60551260	   -183.87336849	     32.08820046	     91.51288153
      5.98333330	      2.58102086	     -1.60105153	      2.50487309	      2.22761068	      1.16005237	     -0.11645320	     -8.46165886	      1.01249554	      2.88440407	      0.51189623	      6.55798363	    -18.90259292	      0.00000000	     -6.85156713	     -3.39693870	      4.28157188	      1.88066010	      5.85805688	    -14.97865557	      0.00000000	     -6.91938627	      3.36319140	     -1.29339520	     -3.76748031	     -5.35698441	     -9.72421117	     21.77238423	     91.38086755	   -180.26533409	   -171.48623004	   -183.91027801	     32.12581985	     91.51044187
      6.00000000	      2.56095403	     -1.69961623	      2.35102193	      2.22862992	      1.15983938	     -0.11725615	     -8.48188211	      1.04585271	      3.34273750	      0.61918527	      6.84907724	    -18.83853593	      0.00000000	     -7.10017624	     -3.47249550	      4.44882107	      1.61116554	      6.07415655	    -15.02451798	      0.00000000	     -6.77562673	      3.36162387	     -1.21538808	     -3.96906073	     -5.29722652	     -9.69262746	     21.62310511	     91.38677122	   -180.23995905	   -171.11713893	   -184.04973185	     32.24061496	     91.50402718
      6.01666670	      2.52344483	     -1.70400402	      2.26298473	      2.22909515	      1.16043830	     -0.11760893	     -8.49154168	      0.97358446	      3.43043298	      0.63706759	      6.89201166	    -18.81613711	      0.00000000	     -7.15968420	     -3.43164090	      4.47293098	      1.59040225	      6.09020352	    -15.02347231	      0.00000000	     -6.74331396	      3.45060837	     -1.24958043	     -4.01133951	     -5.25368764	     -9.68183145	     21.58765602	     91.38782495	   -180.15232068	   -171.03277112	   -184.07760562	     32.29383750	     91.50321494
      6.03333330	      2.47852634	     -1.71857412	      2.19683165	      2.22996386	      1.16066275	     -0.11725869	     -8.47893876	      0.94945617	      3.70442925	      0.66995696	      6.99612986	    -18.73455772	      0.00000000	     -7.25303182	     -3.42595567	      4.53604703	      1.46612319	      6.14676989	    -15.02545911	      0.00000000	     -6.70024049	      3.44119748	     -1.28062785	     -4.03307298	     -5.20501192	     -9.66680226	     21.53677720	     91.38786662	   -180.01970291	   -170.80487175	   -184.13625421	     32.36904141	     91.50158738
      6.05000000	      2.44512490	     -1.73461824	      2.19550683	      2.23157350	      1.15941436	     -0.11761954	     -8.49089126	      0.94514489	      3.71542559	      0.67966277	      7.00277657	    -18.73264082	      0.00000000	     -7.27595755	     -3.42261768	      4.53843008	      1.47414166	      6.14737162	    -15.02490009	      0.00000000	     -6.70438678	      3.43261485	     -1.27878601	     -4.02660103	     -5.20061640	     -9.66566153	     21.53641465	     91.38783742	   -180.01636010	   -170.79651997	   -184.13809693	     32.37059609	     91.50166322
      6.06666670	      2.40231502	     -1.77975377	      2.07749235	      2.23355994	      1.15771542	     -0.11798382	     -8.49469558	      0.99153593	      4.04808943	      0.68065997	      7.23594073	    -18.68230466	      0.00000000	     -7.42597080	     -3.47152155	      4.62657458	      1.26382488	      6.26340008	    -15.03998741	      0.00000000	     -6.68691247	      3.22956732	     -1.27951219	     -3.98925234	     -5.08377438	     -9.63413314	     21.50456647	     91.38586134	   -179.97695425	   -170.48864782	   -184.19682061	     32.37740058	     91.50335663
      6.08333330	      2.36921874	     -1.78815356	      2.08433370	      2.23507858	      1.15698278	     -0.11852587	     -8.51333219	      0.98608329	      4.05404366	      0.69603656	      7.24093700	    -18.68232024	      0.00000000	     -7.44836677	     -3.46450773	      4.62421139	      1.27344028	      6.26318867	    -15.04059203	      0.00000000	     -6.68871545	      3.22632615	     -1.27456133	     -3.98024071	     -5.07840999	     -9.63230222	     21.50589477	     91.38581293	   -179.98019900	   -170.48670528	   -184.19692472	     32.37560531	     91.50365864
      6.10000000	      2.48376244	     -1.70926987	      1.96738955	      2.23634751	      1.15702717	     -0.11768925	     -8.66995355	      0.90113358	      4.29500689	      0.80236425	      7.57954908	    -18.71029300	      0.00000000	     -7.79968261	     -3.38114194	      4.53703436	      1.01815977	      6.32403364	    -15.06616123	      0.00000000	     -6.66731244	      2.99093137	     -1.28049274	     -3.88830225	     -4.88224911	     -9.50822852	     21.46686802	     91.37959095	   -180.15834334	   -170.33451686	   -184.20318760	     32.19860312	     91.52654207
      6.11666670	      2.44047141	     -1.71258989	      1.98051451	      2.23785266	      1.15688201	     -0.11684046	     -8.69187375	      0.90572211	      4.29454933	      0.81483334	      7.57792146	    -18.70953609	      0.00000000	     -7.82036001	     -3.38721209	      4.53459200	      1.03048820	      6.32068103	    -15.06518650	      0.00000000	     -6.67069642	      2.97951440	     -1.27429706	     -3.87354154	     -4.88430052	     -9.50634911	     21.47109994	     91.37947089	   -180.16004589	   -170.33613819	   -184.20271785	     32.19499080	     91.52692457
      6.13333330	      2.48156002	     -1.73851432	      2.01097483	      2.24063543	      1.15704689	     -0.11585326	     -8.86089541	      0.98683568	      4.25737616	      0.76268231	      7.57138497	    -18.68625954	      0.00000000	     -7.98704905	     -3.47242200	      4.45181212	      0.96334782	      6.24748498	    -15.02912070	      0.00000000	     -6.63949885	      2.74611197	     -1.22860995	     -3.83009956	     -4.64592397	     -9.35940478	     21.51185855	     91.38230124	   -180.26692475	   -170.17549967	   -184.23251434	     31.98570543	     91.54071032
      6.15000000	      2.42496568	     -1.72681030	      2.02051591	      2.24352350	      1.15729328	     -0.11582420	     -8.89160906	      1.00164604	      4.25843118	      0.78159106	      7.57026688	    -18.68526838	      0.00000000	     -8.01278719	     -3.48474775	      4.45108506	      0.98158474	      6.24476943	    -15.02812085	      0.00000000	     -6.64506419	      2.72964238	     -1.22362627	     -3.82173529	     -4.64572252	     -9.35690300	     21.51567714	     91.38229933	   -180.27343950	   -170.17899042	   -184.23176792	     31.97911024	     91.54110246
